<svg width="42" height="43" viewBox="0 0 42 43" fill="none" xmlns="http://www.w3.org/2000/svg">
<g opacity="0.8" clip-path="url(#clip0_29_14)">
<path d="M20.4477 0.00696639C22.3452 -0.0468743 24.2474 0.177852 26.0846 0.650714C28.9844 1.36703 31.7029 2.76689 34.0237 4.64897C36.0654 6.29228 37.7769 8.33589 39.0955 10.6042C40.1442 12.4137 40.9209 14.3848 41.393 16.4237C41.8581 18.3432 42.0581 20.3307 41.9837 22.304C41.9232 24.0808 41.6209 25.8435 41.1419 27.55C40.3117 30.5159 38.8071 33.2735 36.8235 35.6144C35.7561 36.8691 34.5446 37.9998 33.2144 38.9689C32.0005 39.8655 30.689 40.6333 29.31 41.2396C28.0124 41.8154 26.652 42.2415 25.2637 42.5388C23.1568 42.9976 20.9755 43.1123 18.8315 42.8806C17.3362 42.7167 15.8595 42.3843 14.4317 41.9138C12.2039 41.174 10.118 40.0247 8.26694 38.578C6.11822 36.9113 4.31599 34.8068 2.93932 32.4565C2.07426 30.9747 1.39057 29.3829 0.909204 27.7326C0.483646 26.2508 0.183663 24.7292 0.0673902 23.1889C-0.109344 21.0048 0.0604139 18.7927 0.55341 16.6578C0.981293 14.7312 1.67195 12.8632 2.61144 11.1286C3.87648 8.80641 5.55081 6.70662 7.56 4.99543C9.56454 3.29125 11.8737 1.94055 14.3666 1.10485C16.327 0.454078 18.3803 0.063148 20.4477 0.00696639ZM19.5849 2.80434C17.9734 2.92373 16.3781 3.26082 14.8642 3.82966C12.9364 4.54597 11.1203 5.57363 9.53431 6.8939C7.8158 8.32419 6.33681 10.0518 5.22757 11.9994C4.37645 13.4812 3.723 15.0753 3.29047 16.7304C2.837 18.5024 2.65562 20.34 2.71376 22.1683C2.77422 23.8724 3.03699 25.5766 3.56022 27.2012C4.46715 30.0665 6.03915 32.7234 8.15997 34.8466C9.15759 35.8508 10.2599 36.7521 11.4621 37.4988C13.6132 38.8378 16.0363 39.7625 18.5501 40.0879C20.3802 40.3313 22.2452 40.3009 24.0661 39.9966C25.6404 39.7367 27.1682 39.2288 28.6123 38.5546C29.9541 37.9179 31.2308 37.129 32.3796 36.1832C33.6539 35.1392 34.7934 33.9266 35.7608 32.59C37.5258 30.1016 38.7234 27.1918 39.1257 24.1557C39.4001 22.1168 39.3559 20.031 38.9931 18.0061C38.4978 15.2837 37.3677 12.6853 35.7747 10.4333C34.9701 9.31673 34.0446 8.28673 33.0191 7.3691C30.8192 5.38636 28.124 3.97245 25.2613 3.24911C23.408 2.80434 21.4871 2.66155 19.5872 2.80434H19.5849Z" fill="black"/>
<path d="M24.187 7.27552C24.5382 7.20529 24.901 7.15379 25.2591 7.21465C25.7893 7.2919 26.259 7.56579 26.7125 7.83499C27.066 8.07377 27.3729 8.37574 27.645 8.70581C27.8799 8.98438 28.038 9.31912 28.1752 9.65621C28.2031 9.7241 28.2194 9.79901 28.2287 9.87392C27.7985 9.47362 27.3032 9.15292 26.7916 8.86967C26.3846 8.6941 25.9823 8.49981 25.5707 8.33829C25.2288 8.22592 24.8591 8.25636 24.5103 8.31254C24.3545 8.34297 24.1801 8.38042 24.0824 8.51854C23.8894 8.77369 23.9591 9.19037 24.2475 9.34253C24.6405 9.53215 25.0568 9.70069 25.4963 9.72176C25.7893 9.75453 26.0823 9.69601 26.3753 9.7358C26.2986 9.78965 26.2125 9.8388 26.1195 9.85051C25.7125 9.90201 25.3102 10.0331 24.894 9.99799C24.294 9.94883 23.701 9.83646 23.0987 9.79667C22.7034 9.74985 22.3011 9.74283 21.9081 9.80603C21.5825 9.86455 21.2663 9.97458 20.9593 10.0986C20.6338 10.2344 20.364 10.4896 20.1826 10.7916C20.0687 10.9929 20.0501 11.3019 20.2663 11.4423C20.7756 11.8122 21.4384 11.8567 22.043 11.7958C22.5848 11.6998 23.115 11.5289 23.6196 11.3089C23.9266 11.1778 24.2568 11.1123 24.5707 10.9975C25.4498 10.7424 26.3986 10.6886 27.2939 10.9016C27.7008 10.9905 28.0636 11.2621 28.2752 11.6226C28.4938 11.9924 28.7845 12.3272 29.1496 12.5589C29.4798 12.7883 29.8844 12.882 30.2774 12.9194C30.5472 12.9475 30.8169 12.9147 31.0843 12.9405C30.7146 13.2378 30.2355 13.3782 29.7658 13.404C29.0565 13.4485 28.3589 13.2448 27.7055 12.9803C27.2659 12.8047 26.8753 12.5285 26.4241 12.3763C26.0009 12.2335 25.5823 12.0135 25.1242 12.0556C24.6638 12.0908 24.1708 12.3061 23.9615 12.7462C23.8499 12.9569 23.8917 13.2378 24.0824 13.3876C24.3219 13.5702 24.5614 13.7598 24.8405 13.8769C25.3916 14.1156 25.9916 14.2608 26.5939 14.2514C27.1566 14.2865 27.7055 14.1461 28.2589 14.0688C27.9357 14.3825 27.5357 14.6119 27.1125 14.7594C26.2962 15.0216 25.4079 14.9701 24.594 14.7313C23.808 14.5183 23.0964 14.1039 22.3988 13.6943C21.9267 13.4532 21.4686 13.1676 20.957 13.0201C20.3547 12.8352 19.7152 12.7064 19.085 12.8024C18.7408 12.8843 18.3757 13.0084 18.1409 13.2916C17.9758 13.4766 17.7967 13.706 17.8362 13.9728C17.8595 14.1976 17.9665 14.4199 18.1478 14.5557C18.4083 14.7617 18.7339 14.853 19.0548 14.9092C19.3408 14.963 19.6315 14.8998 19.9175 14.8694C20.3268 14.7875 20.7454 14.7336 21.164 14.7453C21.8546 14.7313 22.522 14.9935 23.108 15.3446C23.501 15.6255 23.9498 15.9111 24.1382 16.3769C23.7917 16.1382 23.4243 15.9322 23.0266 15.7964C22.436 15.5038 21.7709 15.3914 21.1151 15.4055C20.5035 15.3844 19.8687 15.5108 19.3501 15.8456C19.0757 16.075 18.799 16.3208 18.6269 16.6391C18.5083 16.9247 18.3874 17.2407 18.4757 17.5544C18.5339 17.9243 18.8897 18.1467 19.2222 18.2403C19.7059 18.3573 20.2198 18.3597 20.6989 18.2286C21.2105 18.1256 21.6988 17.9266 22.1802 17.73C22.4871 17.5778 22.822 17.5053 23.1429 17.3952C24.0103 17.0979 24.9707 17.1845 25.8149 17.5146C26.1265 17.6387 26.4311 17.7838 26.7264 17.95C27.2752 18.2614 27.7613 18.6687 28.2822 19.0245C28.4798 19.1556 28.6798 19.2914 28.9031 19.3756C29.5286 19.6214 30.1983 19.7712 30.8727 19.7619C31.3587 19.79 31.8424 19.6846 32.2982 19.5231C32.9331 19.2937 33.4772 18.8817 34.0098 18.4744C33.9563 18.7506 33.7702 18.9683 33.6191 19.1954C33.4307 19.4763 33.1586 19.687 32.9052 19.9047C31.9773 20.6655 30.7471 21.136 29.5426 20.9276C29.0426 20.9089 28.6263 20.6046 28.1729 20.4337C27.5729 20.1552 27.0078 19.8017 26.4823 19.4014C26.166 19.172 25.8195 18.9777 25.4428 18.877C25.0521 18.774 24.6568 18.65 24.2475 18.664C23.7173 18.6336 23.1778 18.7202 22.6895 18.9332C22.4941 19.0292 22.2825 19.1345 22.1755 19.3382C22.0686 19.5395 21.9732 19.7736 22.022 20.0053C22.1081 20.2839 22.2965 20.5648 22.5941 20.6374C22.9406 20.7708 23.3196 20.7146 23.6754 20.6491C24.1963 20.518 24.6638 20.2277 25.1916 20.1224C25.4288 20.0826 25.6637 20.017 25.9079 20.0264C26.3892 19.9983 26.8474 20.2043 27.2613 20.429C27.545 20.5812 27.7915 20.7919 28.0566 20.9745C28.1868 21.0704 28.3333 21.1547 28.4263 21.2928C28.1822 21.2437 27.9473 21.1547 27.7055 21.1079C27.3497 21.04 27.0078 20.8972 26.645 20.8644C26.3683 20.8551 26.0916 20.8574 25.8149 20.8527C25.2102 20.8785 24.6545 21.1477 24.1405 21.4497C23.7266 21.6533 23.2429 21.7938 22.7825 21.6791C22.4523 21.5808 22.1267 21.4684 21.8151 21.3233C21.1012 21.0377 20.3291 20.8036 19.5524 20.9159C19.0129 21.0049 18.4525 21.2366 18.1316 21.7048C17.9246 22.0653 17.813 22.4867 17.8502 22.9034C17.906 23.1281 17.9827 23.3739 18.1804 23.512C18.3967 23.6688 18.6315 23.7976 18.8641 23.9287C19.1315 24.0785 19.4338 24.1464 19.7338 24.1909C20.0687 24.2681 20.4128 24.2143 20.7477 24.1698C21.3988 24.0293 22.0453 23.8491 22.6476 23.5565C23.0522 23.402 23.3941 23.1281 23.7824 22.9408C24.1777 22.7582 24.5359 22.5078 24.9405 22.3439C25.4195 22.1051 25.9404 21.9834 26.4613 21.8781C26.9613 21.7774 27.4729 21.7306 27.9822 21.7657C28.3589 21.7985 28.7426 21.8055 29.1124 21.9061C29.8565 22.0864 30.5402 22.4422 31.2122 22.8074C31.7587 23.1538 32.3006 23.5167 32.7494 23.9895C33.1493 24.35 33.4563 24.7948 33.7772 25.2232C34.0423 25.5439 34.247 25.9091 34.44 26.2766C34.2772 26.1642 34.1493 26.0097 33.9981 25.8833C33.7563 25.6609 33.4889 25.4713 33.2517 25.2443C32.7912 24.7972 32.2564 24.432 31.6983 24.123C31.2401 23.8702 30.7937 23.5775 30.2797 23.4511C29.7379 23.3224 29.1635 23.2568 28.617 23.3926C28.231 23.498 27.8706 23.7531 27.7194 24.1323C27.6636 24.3079 27.7194 24.5022 27.8031 24.6614C27.9845 24.9915 28.3287 25.1811 28.6589 25.3285C29.1798 25.4924 29.7309 25.5439 30.2751 25.5182C30.582 25.4737 30.896 25.4947 31.2006 25.4245C31.2773 25.4081 31.3541 25.4011 31.4332 25.4035C31.2494 25.5814 31.0285 25.7078 30.8169 25.8506C30.5658 25.9957 30.3076 26.1432 30.0239 26.2111C28.8473 26.4475 27.6241 26.1362 26.5823 25.572C25.7777 25.1389 24.994 24.6333 24.0964 24.4203C23.6522 24.3266 23.1778 24.2915 22.7429 24.4437C22.4964 24.5233 22.3058 24.7082 22.1453 24.9048C21.9732 25.1085 21.9244 25.4128 22.022 25.6633C22.1569 25.9442 22.443 26.1127 22.7267 26.2064C23.322 26.3773 23.9475 26.3 24.5428 26.183C25.2684 26.0706 26.0079 25.8693 26.7427 26.0144C27.0636 26.0847 27.3869 26.1736 27.6822 26.3187C27.8868 26.4288 28.0706 26.5716 28.2566 26.7073C28.3077 26.7378 28.331 26.7963 28.3566 26.8478C27.7938 26.6699 27.2008 26.6043 26.6125 26.6324C26.3032 26.6511 26.0079 26.7448 25.7195 26.8501C25.4777 26.9461 25.2591 27.0936 25.0172 27.1919C24.6986 27.3183 24.401 27.4915 24.0661 27.5711C23.4499 27.7397 22.8011 27.6179 22.2011 27.44C21.8523 27.3487 21.5198 27.2083 21.1895 27.0702C20.8454 26.9133 20.5012 26.7237 20.1152 26.698C19.7338 26.6722 19.3175 26.616 18.9664 26.808C18.6501 26.9531 18.4315 27.2387 18.2478 27.5243C18.0827 27.7724 18.0665 28.0885 18.1013 28.3764C18.2013 28.7743 18.5362 29.0506 18.8525 29.28C19.1152 29.4883 19.471 29.4719 19.7873 29.4555C20.657 29.3689 21.3221 28.6924 22.1755 28.5566C22.7801 28.463 23.4057 28.5309 23.9801 28.7439C24.2894 28.868 24.58 29.0506 24.7986 29.3081C24.9754 29.5188 25.1568 29.7318 25.2847 29.9776C25.3242 30.0595 25.38 30.1461 25.3451 30.2397C25.0475 29.9705 24.7126 29.7294 24.3242 29.61C23.8685 29.4719 23.3824 29.3853 22.9104 29.4743C22.4244 29.5375 21.943 29.699 21.55 30.001C21.1709 30.303 20.8151 30.6705 20.657 31.141C20.5221 31.546 20.5733 32.0539 20.8989 32.3559C21.1593 32.59 21.4779 32.7703 21.829 32.8077C22.022 32.8241 22.2151 32.8475 22.4081 32.8311C22.7825 32.8054 23.129 32.6462 23.4662 32.494C23.8126 32.3372 24.0684 32.0422 24.3894 31.8433C24.7242 31.6373 25.0451 31.3938 25.4265 31.2791C25.866 31.1363 26.3288 31.0731 26.7892 31.0708C27.5171 31.1246 28.2357 31.2955 28.917 31.553C29.6123 31.8456 30.2239 32.2951 30.8309 32.7351C31.7541 33.3859 32.9563 33.627 34.0516 33.3438C34.3376 33.2806 34.6027 33.1542 34.8748 33.0465C34.9562 33.0137 35.0399 32.9552 35.133 32.9833C34.9027 33.2314 34.6748 33.4819 34.4283 33.7136C34.1237 33.9852 33.747 34.1584 33.3819 34.3316C32.9028 34.5587 32.3796 34.6992 31.8471 34.7202C31.3099 34.7881 30.7913 34.6032 30.2867 34.4463C29.8612 34.2825 29.4216 34.1561 29.0077 33.9618C28.4287 33.7066 27.7985 33.4913 27.1566 33.5896C26.7706 33.6809 26.4799 33.9899 26.3055 34.334C26.2032 34.5634 26.2311 34.842 26.352 35.0573C26.5265 35.3453 26.8799 35.4623 27.1985 35.4787C27.9799 35.5489 28.6728 35.0269 29.4519 35.0737C29.6914 35.0995 29.9402 35.1041 30.1611 35.2095C30.4797 35.3593 30.7983 35.5536 30.9936 35.8556C30.803 35.8158 30.6402 35.6917 30.4472 35.6613C29.8588 35.4787 29.21 35.6402 28.6984 35.9609C28.2636 36.202 27.8264 36.4642 27.3287 36.5415C26.9474 36.5953 26.5613 36.5508 26.1869 36.4806C25.5963 36.3893 25.1009 36.0218 24.6173 35.694C24.2824 35.4834 24.0219 35.1744 23.6824 34.9707C23.308 34.7343 22.9034 34.5213 22.4592 34.4627C22.1872 34.437 21.9081 34.4581 21.65 34.5493C21.4012 34.6945 21.1756 34.8888 21.0198 35.1322C20.4942 34.9309 19.9222 34.9075 19.3664 34.8841C18.4339 34.8373 17.499 34.8513 16.5665 34.8466C15.7317 34.7881 14.8806 34.753 14.083 34.4791C13.6155 34.3153 13.1411 34.0601 12.8737 33.6224C12.5854 33.1612 12.4342 32.5689 12.6226 32.0399C12.7528 31.6256 13.0598 31.2908 13.1644 30.8695C13.2063 30.7196 13.2086 30.5581 13.1644 30.4106C13.1063 30.1906 13.0411 29.9495 12.8621 29.795C12.6342 29.6428 12.3505 29.5515 12.2017 29.3034C12.0738 29.0646 11.9924 28.7299 12.1993 28.5098C12.5156 28.1587 13.0249 28.1002 13.4667 28.0627C13.4179 27.9316 13.2644 27.9269 13.1551 27.8731C12.7319 27.6975 12.2854 27.5149 11.9738 27.1661C11.7087 26.8478 11.6715 26.2907 12.004 26.0097C12.204 25.9255 12.4435 25.888 12.5854 25.7054C12.7993 25.4035 12.7923 24.9587 12.5737 24.6614C12.3412 24.4343 11.9877 24.3781 11.7831 24.116C11.5808 23.8538 11.404 23.526 11.4691 23.1843C11.5133 22.9549 11.7319 22.8308 11.9017 22.6974C12.9249 21.8944 13.9411 21.0845 14.9341 20.2441C15.2364 20.017 15.3759 19.6214 15.3573 19.2492C15.3433 18.987 15.3573 18.7249 15.3806 18.4627C15.4457 17.3742 15.5898 16.288 15.8549 15.2299C16.0363 14.4621 16.3875 13.7504 16.7665 13.0622C17.2153 12.2733 17.7641 11.5453 18.406 10.9063C18.4595 10.8548 18.4967 10.7892 18.4757 10.7143C18.399 10.101 18.5315 9.47128 18.8385 8.93756C19.0827 8.49747 19.4268 8.11824 19.8129 7.79988C19.9245 7.7039 20.0059 7.57281 20.1408 7.50025C20.1617 7.73668 20.2501 7.98481 20.4617 8.11122C20.6524 8.21188 20.864 8.27976 21.0802 8.29849C21.6965 8.29849 22.2778 8.06908 22.8313 7.82095C23.2801 7.63368 23.7057 7.38086 24.187 7.27786V7.27552Z" fill="black"/>
<path d="M10.6064 7.83733C10.9994 9.04758 11.3854 10.2578 11.7761 11.4657C13.0295 11.4657 14.2853 11.4657 15.5387 11.4657C14.5248 12.2125 13.5086 12.9545 12.4947 13.7013C12.8853 14.9092 13.2737 16.1171 13.662 17.325C12.6412 16.5829 11.6249 15.8338 10.6064 15.0871C9.58785 15.8362 8.5693 16.5829 7.54843 17.3297C7.94143 16.1218 8.32746 14.9115 8.71813 13.7036C7.70191 12.9592 6.68336 12.2172 5.66946 11.4657C6.92521 11.4657 8.18095 11.4657 9.43437 11.4657C9.8297 10.2578 10.2111 9.04524 10.6064 7.83733Z" fill="black"/>
</g>
<defs>
<clipPath id="clip0_29_14">
<rect width="42" height="43" fill="white"/>
</clipPath>
</defs>
</svg>
