<svg width="390" height="161" viewBox="0 0 390 161" fill="none" xmlns="http://www.w3.org/2000/svg">
<path d="M17 8.22067C13 15.7869 4 113.226 0 161H390V131.172C387.5 123.654 377.1 97.8512 355.5 54.782C328.5 0.945457 278.5 84.6103 277 84.6103C275.5 84.6103 249.5 131.172 234.5 139.174C219.5 147.177 190 144.995 196 131.172C200.8 120.113 196 104.253 193 97.7057C184.167 78.0626 163.4 38.7765 151 38.7765C138.6 38.7765 145.833 59.1471 151 69.3324C160 91.158 162.2 133.063 99 126.079C20 117.349 31 20.5885 29.5 8.22067C28 -4.14718 22 -1.2371 17 8.22067Z" fill="white"/>
</svg>
